G04 #@! TF.GenerationSoftware,KiCad,Pcbnew,(5.1.2)-1*
G04 #@! TF.CreationDate,2019-06-29T13:34:35-04:00*
G04 #@! TF.ProjectId,linecon27,6c696e65-636f-46e3-9237-2e6b69636164,rev?*
G04 #@! TF.SameCoordinates,Original*
G04 #@! TF.FileFunction,Copper,L2,Bot*
G04 #@! TF.FilePolarity,Positive*
%FSLAX46Y46*%
G04 Gerber Fmt 4.6, Leading zero omitted, Abs format (unit mm)*
G04 Created by KiCad (PCBNEW (5.1.2)-1) date 2019-06-29 13:34:35*
%MOMM*%
%LPD*%
G04 APERTURE LIST*
%ADD10R,1.727200X1.727200*%
%ADD11O,1.727200X1.727200*%
%ADD12C,1.727200*%
%ADD13O,1.600000X1.600000*%
%ADD14C,1.600000*%
%ADD15C,1.800000*%
%ADD16R,1.800000X1.800000*%
%ADD17C,1.000000*%
G04 APERTURE END LIST*
D10*
X137728000Y-100985000D03*
D11*
X137728000Y-98445000D03*
X140268000Y-100985000D03*
X140268000Y-98445000D03*
D12*
X142808000Y-100985000D03*
X142808000Y-98445000D03*
D13*
X157480000Y-95631000D03*
D14*
X157480000Y-103251000D03*
D13*
X151130000Y-95631000D03*
D14*
X151130000Y-103251000D03*
D13*
X160655000Y-95631000D03*
D14*
X160655000Y-103251000D03*
D13*
X154305000Y-95631000D03*
D14*
X154305000Y-103251000D03*
D15*
X148463000Y-89916000D03*
D16*
X145923000Y-89916000D03*
D15*
X209677000Y-115951000D03*
D16*
X207137000Y-115951000D03*
D15*
X223774000Y-115951000D03*
D16*
X221234000Y-115951000D03*
D15*
X133985000Y-89916000D03*
D16*
X131445000Y-89916000D03*
D17*
X133985000Y-89916000D02*
X144608600Y-88015500D01*
X144608600Y-88015500D02*
X145437400Y-88015500D01*
X145437400Y-88015500D02*
X149116600Y-88015500D01*
X149116600Y-88015500D02*
X149347600Y-88111200D01*
X149347600Y-88111200D02*
X150267800Y-89031400D01*
X150267800Y-89031400D02*
X150363500Y-89262400D01*
X150363500Y-89262400D02*
X150363500Y-90569600D01*
X150363500Y-90569600D02*
X149329500Y-94997300D01*
X149329500Y-94997300D02*
X149329500Y-96264700D01*
X149329500Y-96264700D02*
X149410000Y-96459000D01*
X149410000Y-96459000D02*
X150302000Y-97351000D01*
X150302000Y-97351000D02*
X150496300Y-97431500D01*
X150496300Y-97431500D02*
X151763700Y-97431500D01*
X151763700Y-97431500D02*
X151958000Y-97351000D01*
X151958000Y-97351000D02*
X154305000Y-95631000D01*
X211871500Y-115951000D02*
X211481800Y-115066400D01*
X211481800Y-115066400D02*
X210350900Y-113826200D01*
X210350900Y-113826200D02*
X209261800Y-112737100D01*
X209261800Y-112737100D02*
X196751200Y-104135600D01*
X196751200Y-104135600D02*
X195296300Y-103532900D01*
X195296300Y-103532900D02*
X193721200Y-103532900D01*
X193721200Y-103532900D02*
X193306600Y-103532900D01*
X193306600Y-103532900D02*
X161288700Y-105051500D01*
X161288700Y-105051500D02*
X160021300Y-105051500D01*
X160021300Y-105051500D02*
X150496300Y-105051500D01*
X150496300Y-105051500D02*
X139621600Y-102849100D01*
X139621600Y-102849100D02*
X138384500Y-102348600D01*
X138384500Y-102348600D02*
X138091600Y-102055700D01*
X138091600Y-102055700D02*
X138091600Y-101848600D01*
X138091600Y-101848600D02*
X138091600Y-101348600D01*
X138091600Y-101348600D02*
X137728000Y-100985000D01*
X145923000Y-89916000D02*
X145523000Y-90316000D01*
X145523000Y-90316000D02*
X145023000Y-90316000D01*
X145023000Y-90316000D02*
X144815900Y-90316000D01*
X144815900Y-90316000D02*
X136267300Y-94238800D01*
X131445000Y-89916000D02*
X131845000Y-90316000D01*
X131845000Y-90316000D02*
X131845000Y-90816000D01*
X131845000Y-90816000D02*
X131845000Y-91023100D01*
X131845000Y-91023100D02*
X132137900Y-91316000D01*
X132137900Y-91316000D02*
X136267300Y-94238800D01*
X221234000Y-115951000D02*
X220834000Y-115951000D01*
X220834000Y-115951000D02*
X220334000Y-115951000D01*
X220334000Y-115951000D02*
X211871500Y-115951000D01*
X211871500Y-115951000D02*
X211481800Y-116835600D01*
X211481800Y-116835600D02*
X210561600Y-117755800D01*
X210561600Y-117755800D02*
X210330600Y-117851500D01*
X210330600Y-117851500D02*
X209023400Y-117851500D01*
X209023400Y-117851500D02*
X208792400Y-117755800D01*
X208792400Y-117755800D02*
X207829900Y-117351000D01*
X207829900Y-117351000D02*
X207537000Y-117058100D01*
X207537000Y-117058100D02*
X207537000Y-116851000D01*
X207537000Y-116851000D02*
X207537000Y-116351000D01*
X207537000Y-116351000D02*
X207137000Y-115951000D01*
X136267300Y-94238800D02*
X135863900Y-97798600D01*
X135863900Y-97798600D02*
X135863900Y-99091400D01*
X135863900Y-99091400D02*
X136364400Y-100328500D01*
X136364400Y-100328500D02*
X136657300Y-100621400D01*
X136657300Y-100621400D02*
X136864400Y-100621400D01*
X136864400Y-100621400D02*
X137364400Y-100621400D01*
X137364400Y-100621400D02*
X137728000Y-100985000D01*
X223774000Y-115951000D02*
X223134500Y-114636600D01*
X223134500Y-114636600D02*
X222548400Y-114050500D01*
X222548400Y-114050500D02*
X197485400Y-102746100D01*
X197485400Y-102746100D02*
X197217500Y-102635100D01*
X197217500Y-102635100D02*
X195762600Y-102032400D01*
X195762600Y-102032400D02*
X160655000Y-95631000D01*
X209677000Y-115951000D02*
X209037500Y-114636600D01*
X209037500Y-114636600D02*
X208451400Y-114050500D01*
X208451400Y-114050500D02*
X206651400Y-114050500D01*
X206651400Y-114050500D02*
X205822600Y-114050500D01*
X205822600Y-114050500D02*
X205236500Y-114636600D01*
X205236500Y-114636600D02*
X205236500Y-116436600D01*
X205236500Y-116436600D02*
X205236500Y-117265400D01*
X205236500Y-117265400D02*
X205822600Y-117851500D01*
X205822600Y-117851500D02*
X207095500Y-118741000D01*
X207095500Y-118741000D02*
X207363400Y-118852000D01*
X207363400Y-118852000D02*
X208623700Y-119310700D01*
X208623700Y-119310700D02*
X208788300Y-119352000D01*
X208788300Y-119352000D02*
X210565700Y-119352000D01*
X210565700Y-119352000D02*
X224427600Y-117851500D01*
X224427600Y-117851500D02*
X224658600Y-117755800D01*
X224658600Y-117755800D02*
X225578800Y-116835600D01*
X225578800Y-116835600D02*
X225674500Y-116604600D01*
X225674500Y-116604600D02*
X225674500Y-115297400D01*
X225674500Y-115297400D02*
X225578800Y-115066400D01*
X225578800Y-115066400D02*
X224447900Y-113826200D01*
X224447900Y-113826200D02*
X223358800Y-112737100D01*
X223358800Y-112737100D02*
X198224500Y-101427700D01*
X198224500Y-101427700D02*
X197628900Y-101180700D01*
X197628900Y-101180700D02*
X196174000Y-100578000D01*
X196174000Y-100578000D02*
X195990200Y-100531900D01*
X195990200Y-100531900D02*
X161288700Y-93830500D01*
X161288700Y-93830500D02*
X154938700Y-93830500D01*
X154938700Y-93830500D02*
X153671300Y-93830500D01*
X153671300Y-93830500D02*
X153477000Y-93911000D01*
X153477000Y-93911000D02*
X151130000Y-95631000D01*
X148463000Y-89916000D02*
X147829000Y-94754600D01*
X147829000Y-94754600D02*
X147829000Y-96507400D01*
X147829000Y-96507400D02*
X147865500Y-96652900D01*
X147865500Y-96652900D02*
X148101100Y-97221200D01*
X148101100Y-97221200D02*
X148178300Y-97349800D01*
X148178300Y-97349800D02*
X149411200Y-98582700D01*
X149411200Y-98582700D02*
X149539800Y-98659900D01*
X149539800Y-98659900D02*
X150108100Y-98895500D01*
X150108100Y-98895500D02*
X150253600Y-98932000D01*
X150253600Y-98932000D02*
X152006400Y-98932000D01*
X152006400Y-98932000D02*
X152151900Y-98895500D01*
X152151900Y-98895500D02*
X152720200Y-98659900D01*
X152720200Y-98659900D02*
X155133000Y-97351000D01*
X155133000Y-97351000D02*
X157480000Y-95631000D01*
X160655000Y-103251000D02*
X157480000Y-103251000D01*
X157480000Y-103251000D02*
X154305000Y-103251000D01*
X154305000Y-103251000D02*
X151130000Y-103251000D01*
X151130000Y-103251000D02*
X143672000Y-96671000D01*
X143672000Y-96671000D02*
X143454400Y-96580900D01*
X143454400Y-96580900D02*
X140914400Y-96580900D01*
X140914400Y-96580900D02*
X139621600Y-96580900D01*
X139621600Y-96580900D02*
X139404000Y-96671000D01*
X139404000Y-96671000D02*
X138494000Y-97581000D01*
X138494000Y-97581000D02*
X137728000Y-98445000D01*
M02*
