G04 #@! TF.GenerationSoftware,KiCad,Pcbnew,(5.1.2)-1*
G04 #@! TF.CreationDate,2019-06-29T13:34:35-04:00*
G04 #@! TF.ProjectId,linecon27,6c696e65-636f-46e3-9237-2e6b69636164,rev?*
G04 #@! TF.SameCoordinates,Original*
G04 #@! TF.FileFunction,Soldermask,Bot*
G04 #@! TF.FilePolarity,Negative*
%FSLAX46Y46*%
G04 Gerber Fmt 4.6, Leading zero omitted, Abs format (unit mm)*
G04 Created by KiCad (PCBNEW (5.1.2)-1) date 2019-06-29 13:34:35*
%MOMM*%
%LPD*%
G04 APERTURE LIST*
%ADD10C,0.100000*%
G04 APERTURE END LIST*
D10*
G36*
X209954395Y-115036546D02*
G01*
X210127466Y-115108234D01*
X210127467Y-115108235D01*
X210283227Y-115212310D01*
X210415690Y-115344773D01*
X210415691Y-115344775D01*
X210519766Y-115500534D01*
X210591454Y-115673605D01*
X210628000Y-115857333D01*
X210628000Y-116044667D01*
X210591454Y-116228395D01*
X210519766Y-116401466D01*
X210519765Y-116401467D01*
X210415690Y-116557227D01*
X210283227Y-116689690D01*
X210204818Y-116742081D01*
X210127466Y-116793766D01*
X209954395Y-116865454D01*
X209770667Y-116902000D01*
X209583333Y-116902000D01*
X209399605Y-116865454D01*
X209226534Y-116793766D01*
X209149182Y-116742081D01*
X209070773Y-116689690D01*
X208938310Y-116557227D01*
X208834235Y-116401467D01*
X208834234Y-116401466D01*
X208762546Y-116228395D01*
X208726000Y-116044667D01*
X208726000Y-115857333D01*
X208762546Y-115673605D01*
X208834234Y-115500534D01*
X208938309Y-115344775D01*
X208938310Y-115344773D01*
X209070773Y-115212310D01*
X209226533Y-115108235D01*
X209226534Y-115108234D01*
X209399605Y-115036546D01*
X209583333Y-115000000D01*
X209770667Y-115000000D01*
X209954395Y-115036546D01*
X209954395Y-115036546D01*
G37*
G36*
X208088000Y-116902000D02*
G01*
X206186000Y-116902000D01*
X206186000Y-115000000D01*
X208088000Y-115000000D01*
X208088000Y-116902000D01*
X208088000Y-116902000D01*
G37*
G36*
X222185000Y-116902000D02*
G01*
X220283000Y-116902000D01*
X220283000Y-115000000D01*
X222185000Y-115000000D01*
X222185000Y-116902000D01*
X222185000Y-116902000D01*
G37*
G36*
X224051395Y-115036546D02*
G01*
X224224466Y-115108234D01*
X224224467Y-115108235D01*
X224380227Y-115212310D01*
X224512690Y-115344773D01*
X224512691Y-115344775D01*
X224616766Y-115500534D01*
X224688454Y-115673605D01*
X224725000Y-115857333D01*
X224725000Y-116044667D01*
X224688454Y-116228395D01*
X224616766Y-116401466D01*
X224616765Y-116401467D01*
X224512690Y-116557227D01*
X224380227Y-116689690D01*
X224301818Y-116742081D01*
X224224466Y-116793766D01*
X224051395Y-116865454D01*
X223867667Y-116902000D01*
X223680333Y-116902000D01*
X223496605Y-116865454D01*
X223323534Y-116793766D01*
X223246182Y-116742081D01*
X223167773Y-116689690D01*
X223035310Y-116557227D01*
X222931235Y-116401467D01*
X222931234Y-116401466D01*
X222859546Y-116228395D01*
X222823000Y-116044667D01*
X222823000Y-115857333D01*
X222859546Y-115673605D01*
X222931234Y-115500534D01*
X223035309Y-115344775D01*
X223035310Y-115344773D01*
X223167773Y-115212310D01*
X223323533Y-115108235D01*
X223323534Y-115108234D01*
X223496605Y-115036546D01*
X223680333Y-115000000D01*
X223867667Y-115000000D01*
X224051395Y-115036546D01*
X224051395Y-115036546D01*
G37*
G36*
X157728228Y-102432703D02*
G01*
X157883100Y-102496853D01*
X158022481Y-102589985D01*
X158141015Y-102708519D01*
X158234147Y-102847900D01*
X158298297Y-103002772D01*
X158331000Y-103167184D01*
X158331000Y-103334816D01*
X158298297Y-103499228D01*
X158234147Y-103654100D01*
X158141015Y-103793481D01*
X158022481Y-103912015D01*
X157883100Y-104005147D01*
X157728228Y-104069297D01*
X157563816Y-104102000D01*
X157396184Y-104102000D01*
X157231772Y-104069297D01*
X157076900Y-104005147D01*
X156937519Y-103912015D01*
X156818985Y-103793481D01*
X156725853Y-103654100D01*
X156661703Y-103499228D01*
X156629000Y-103334816D01*
X156629000Y-103167184D01*
X156661703Y-103002772D01*
X156725853Y-102847900D01*
X156818985Y-102708519D01*
X156937519Y-102589985D01*
X157076900Y-102496853D01*
X157231772Y-102432703D01*
X157396184Y-102400000D01*
X157563816Y-102400000D01*
X157728228Y-102432703D01*
X157728228Y-102432703D01*
G37*
G36*
X154553228Y-102432703D02*
G01*
X154708100Y-102496853D01*
X154847481Y-102589985D01*
X154966015Y-102708519D01*
X155059147Y-102847900D01*
X155123297Y-103002772D01*
X155156000Y-103167184D01*
X155156000Y-103334816D01*
X155123297Y-103499228D01*
X155059147Y-103654100D01*
X154966015Y-103793481D01*
X154847481Y-103912015D01*
X154708100Y-104005147D01*
X154553228Y-104069297D01*
X154388816Y-104102000D01*
X154221184Y-104102000D01*
X154056772Y-104069297D01*
X153901900Y-104005147D01*
X153762519Y-103912015D01*
X153643985Y-103793481D01*
X153550853Y-103654100D01*
X153486703Y-103499228D01*
X153454000Y-103334816D01*
X153454000Y-103167184D01*
X153486703Y-103002772D01*
X153550853Y-102847900D01*
X153643985Y-102708519D01*
X153762519Y-102589985D01*
X153901900Y-102496853D01*
X154056772Y-102432703D01*
X154221184Y-102400000D01*
X154388816Y-102400000D01*
X154553228Y-102432703D01*
X154553228Y-102432703D01*
G37*
G36*
X151378228Y-102432703D02*
G01*
X151533100Y-102496853D01*
X151672481Y-102589985D01*
X151791015Y-102708519D01*
X151884147Y-102847900D01*
X151948297Y-103002772D01*
X151981000Y-103167184D01*
X151981000Y-103334816D01*
X151948297Y-103499228D01*
X151884147Y-103654100D01*
X151791015Y-103793481D01*
X151672481Y-103912015D01*
X151533100Y-104005147D01*
X151378228Y-104069297D01*
X151213816Y-104102000D01*
X151046184Y-104102000D01*
X150881772Y-104069297D01*
X150726900Y-104005147D01*
X150587519Y-103912015D01*
X150468985Y-103793481D01*
X150375853Y-103654100D01*
X150311703Y-103499228D01*
X150279000Y-103334816D01*
X150279000Y-103167184D01*
X150311703Y-103002772D01*
X150375853Y-102847900D01*
X150468985Y-102708519D01*
X150587519Y-102589985D01*
X150726900Y-102496853D01*
X150881772Y-102432703D01*
X151046184Y-102400000D01*
X151213816Y-102400000D01*
X151378228Y-102432703D01*
X151378228Y-102432703D01*
G37*
G36*
X160903228Y-102432703D02*
G01*
X161058100Y-102496853D01*
X161197481Y-102589985D01*
X161316015Y-102708519D01*
X161409147Y-102847900D01*
X161473297Y-103002772D01*
X161506000Y-103167184D01*
X161506000Y-103334816D01*
X161473297Y-103499228D01*
X161409147Y-103654100D01*
X161316015Y-103793481D01*
X161197481Y-103912015D01*
X161058100Y-104005147D01*
X160903228Y-104069297D01*
X160738816Y-104102000D01*
X160571184Y-104102000D01*
X160406772Y-104069297D01*
X160251900Y-104005147D01*
X160112519Y-103912015D01*
X159993985Y-103793481D01*
X159900853Y-103654100D01*
X159836703Y-103499228D01*
X159804000Y-103334816D01*
X159804000Y-103167184D01*
X159836703Y-103002772D01*
X159900853Y-102847900D01*
X159993985Y-102708519D01*
X160112519Y-102589985D01*
X160251900Y-102496853D01*
X160406772Y-102432703D01*
X160571184Y-102400000D01*
X160738816Y-102400000D01*
X160903228Y-102432703D01*
X160903228Y-102432703D01*
G37*
G36*
X138642600Y-101899600D02*
G01*
X136813400Y-101899600D01*
X136813400Y-100070400D01*
X138642600Y-100070400D01*
X138642600Y-101899600D01*
X138642600Y-101899600D01*
G37*
G36*
X143074778Y-100105547D02*
G01*
X143241224Y-100174491D01*
X143391022Y-100274583D01*
X143518417Y-100401978D01*
X143618509Y-100551776D01*
X143687453Y-100718222D01*
X143722600Y-100894918D01*
X143722600Y-101075082D01*
X143687453Y-101251778D01*
X143618509Y-101418224D01*
X143518417Y-101568022D01*
X143391022Y-101695417D01*
X143241224Y-101795509D01*
X143074778Y-101864453D01*
X142898082Y-101899600D01*
X142717918Y-101899600D01*
X142541222Y-101864453D01*
X142374776Y-101795509D01*
X142224978Y-101695417D01*
X142097583Y-101568022D01*
X141997491Y-101418224D01*
X141928547Y-101251778D01*
X141893400Y-101075082D01*
X141893400Y-100894918D01*
X141928547Y-100718222D01*
X141997491Y-100551776D01*
X142097583Y-100401978D01*
X142224978Y-100274583D01*
X142374776Y-100174491D01*
X142541222Y-100105547D01*
X142717918Y-100070400D01*
X142898082Y-100070400D01*
X143074778Y-100105547D01*
X143074778Y-100105547D01*
G37*
G36*
X140447294Y-100083633D02*
G01*
X140619695Y-100135931D01*
X140778583Y-100220858D01*
X140917849Y-100335151D01*
X141032142Y-100474417D01*
X141117069Y-100633305D01*
X141169367Y-100805706D01*
X141187025Y-100985000D01*
X141169367Y-101164294D01*
X141117069Y-101336695D01*
X141032142Y-101495583D01*
X140917849Y-101634849D01*
X140778583Y-101749142D01*
X140619695Y-101834069D01*
X140447294Y-101886367D01*
X140312931Y-101899600D01*
X140223069Y-101899600D01*
X140088706Y-101886367D01*
X139916305Y-101834069D01*
X139757417Y-101749142D01*
X139618151Y-101634849D01*
X139503858Y-101495583D01*
X139418931Y-101336695D01*
X139366633Y-101164294D01*
X139348975Y-100985000D01*
X139366633Y-100805706D01*
X139418931Y-100633305D01*
X139503858Y-100474417D01*
X139618151Y-100335151D01*
X139757417Y-100220858D01*
X139916305Y-100135931D01*
X140088706Y-100083633D01*
X140223069Y-100070400D01*
X140312931Y-100070400D01*
X140447294Y-100083633D01*
X140447294Y-100083633D01*
G37*
G36*
X143074778Y-97565547D02*
G01*
X143241224Y-97634491D01*
X143391022Y-97734583D01*
X143518417Y-97861978D01*
X143618509Y-98011776D01*
X143687453Y-98178222D01*
X143722600Y-98354918D01*
X143722600Y-98535082D01*
X143687453Y-98711778D01*
X143618509Y-98878224D01*
X143518417Y-99028022D01*
X143391022Y-99155417D01*
X143241224Y-99255509D01*
X143074778Y-99324453D01*
X142898082Y-99359600D01*
X142717918Y-99359600D01*
X142541222Y-99324453D01*
X142374776Y-99255509D01*
X142224978Y-99155417D01*
X142097583Y-99028022D01*
X141997491Y-98878224D01*
X141928547Y-98711778D01*
X141893400Y-98535082D01*
X141893400Y-98354918D01*
X141928547Y-98178222D01*
X141997491Y-98011776D01*
X142097583Y-97861978D01*
X142224978Y-97734583D01*
X142374776Y-97634491D01*
X142541222Y-97565547D01*
X142717918Y-97530400D01*
X142898082Y-97530400D01*
X143074778Y-97565547D01*
X143074778Y-97565547D01*
G37*
G36*
X140447294Y-97543633D02*
G01*
X140619695Y-97595931D01*
X140778583Y-97680858D01*
X140917849Y-97795151D01*
X141032142Y-97934417D01*
X141117069Y-98093305D01*
X141169367Y-98265706D01*
X141187025Y-98445000D01*
X141169367Y-98624294D01*
X141117069Y-98796695D01*
X141032142Y-98955583D01*
X140917849Y-99094849D01*
X140778583Y-99209142D01*
X140619695Y-99294069D01*
X140447294Y-99346367D01*
X140312931Y-99359600D01*
X140223069Y-99359600D01*
X140088706Y-99346367D01*
X139916305Y-99294069D01*
X139757417Y-99209142D01*
X139618151Y-99094849D01*
X139503858Y-98955583D01*
X139418931Y-98796695D01*
X139366633Y-98624294D01*
X139348975Y-98445000D01*
X139366633Y-98265706D01*
X139418931Y-98093305D01*
X139503858Y-97934417D01*
X139618151Y-97795151D01*
X139757417Y-97680858D01*
X139916305Y-97595931D01*
X140088706Y-97543633D01*
X140223069Y-97530400D01*
X140312931Y-97530400D01*
X140447294Y-97543633D01*
X140447294Y-97543633D01*
G37*
G36*
X137907294Y-97543633D02*
G01*
X138079695Y-97595931D01*
X138238583Y-97680858D01*
X138377849Y-97795151D01*
X138492142Y-97934417D01*
X138577069Y-98093305D01*
X138629367Y-98265706D01*
X138647025Y-98445000D01*
X138629367Y-98624294D01*
X138577069Y-98796695D01*
X138492142Y-98955583D01*
X138377849Y-99094849D01*
X138238583Y-99209142D01*
X138079695Y-99294069D01*
X137907294Y-99346367D01*
X137772931Y-99359600D01*
X137683069Y-99359600D01*
X137548706Y-99346367D01*
X137376305Y-99294069D01*
X137217417Y-99209142D01*
X137078151Y-99094849D01*
X136963858Y-98955583D01*
X136878931Y-98796695D01*
X136826633Y-98624294D01*
X136808975Y-98445000D01*
X136826633Y-98265706D01*
X136878931Y-98093305D01*
X136963858Y-97934417D01*
X137078151Y-97795151D01*
X137217417Y-97680858D01*
X137376305Y-97595931D01*
X137548706Y-97543633D01*
X137683069Y-97530400D01*
X137772931Y-97530400D01*
X137907294Y-97543633D01*
X137907294Y-97543633D01*
G37*
G36*
X157646823Y-94792313D02*
G01*
X157807242Y-94840976D01*
X157939906Y-94911886D01*
X157955078Y-94919996D01*
X158084659Y-95026341D01*
X158191004Y-95155922D01*
X158191005Y-95155924D01*
X158270024Y-95303758D01*
X158318687Y-95464177D01*
X158335117Y-95631000D01*
X158318687Y-95797823D01*
X158270024Y-95958242D01*
X158199114Y-96090906D01*
X158191004Y-96106078D01*
X158084659Y-96235659D01*
X157955078Y-96342004D01*
X157955076Y-96342005D01*
X157807242Y-96421024D01*
X157646823Y-96469687D01*
X157521804Y-96482000D01*
X157438196Y-96482000D01*
X157313177Y-96469687D01*
X157152758Y-96421024D01*
X157004924Y-96342005D01*
X157004922Y-96342004D01*
X156875341Y-96235659D01*
X156768996Y-96106078D01*
X156760886Y-96090906D01*
X156689976Y-95958242D01*
X156641313Y-95797823D01*
X156624883Y-95631000D01*
X156641313Y-95464177D01*
X156689976Y-95303758D01*
X156768995Y-95155924D01*
X156768996Y-95155922D01*
X156875341Y-95026341D01*
X157004922Y-94919996D01*
X157020094Y-94911886D01*
X157152758Y-94840976D01*
X157313177Y-94792313D01*
X157438196Y-94780000D01*
X157521804Y-94780000D01*
X157646823Y-94792313D01*
X157646823Y-94792313D01*
G37*
G36*
X154471823Y-94792313D02*
G01*
X154632242Y-94840976D01*
X154764906Y-94911886D01*
X154780078Y-94919996D01*
X154909659Y-95026341D01*
X155016004Y-95155922D01*
X155016005Y-95155924D01*
X155095024Y-95303758D01*
X155143687Y-95464177D01*
X155160117Y-95631000D01*
X155143687Y-95797823D01*
X155095024Y-95958242D01*
X155024114Y-96090906D01*
X155016004Y-96106078D01*
X154909659Y-96235659D01*
X154780078Y-96342004D01*
X154780076Y-96342005D01*
X154632242Y-96421024D01*
X154471823Y-96469687D01*
X154346804Y-96482000D01*
X154263196Y-96482000D01*
X154138177Y-96469687D01*
X153977758Y-96421024D01*
X153829924Y-96342005D01*
X153829922Y-96342004D01*
X153700341Y-96235659D01*
X153593996Y-96106078D01*
X153585886Y-96090906D01*
X153514976Y-95958242D01*
X153466313Y-95797823D01*
X153449883Y-95631000D01*
X153466313Y-95464177D01*
X153514976Y-95303758D01*
X153593995Y-95155924D01*
X153593996Y-95155922D01*
X153700341Y-95026341D01*
X153829922Y-94919996D01*
X153845094Y-94911886D01*
X153977758Y-94840976D01*
X154138177Y-94792313D01*
X154263196Y-94780000D01*
X154346804Y-94780000D01*
X154471823Y-94792313D01*
X154471823Y-94792313D01*
G37*
G36*
X160821823Y-94792313D02*
G01*
X160982242Y-94840976D01*
X161114906Y-94911886D01*
X161130078Y-94919996D01*
X161259659Y-95026341D01*
X161366004Y-95155922D01*
X161366005Y-95155924D01*
X161445024Y-95303758D01*
X161493687Y-95464177D01*
X161510117Y-95631000D01*
X161493687Y-95797823D01*
X161445024Y-95958242D01*
X161374114Y-96090906D01*
X161366004Y-96106078D01*
X161259659Y-96235659D01*
X161130078Y-96342004D01*
X161130076Y-96342005D01*
X160982242Y-96421024D01*
X160821823Y-96469687D01*
X160696804Y-96482000D01*
X160613196Y-96482000D01*
X160488177Y-96469687D01*
X160327758Y-96421024D01*
X160179924Y-96342005D01*
X160179922Y-96342004D01*
X160050341Y-96235659D01*
X159943996Y-96106078D01*
X159935886Y-96090906D01*
X159864976Y-95958242D01*
X159816313Y-95797823D01*
X159799883Y-95631000D01*
X159816313Y-95464177D01*
X159864976Y-95303758D01*
X159943995Y-95155924D01*
X159943996Y-95155922D01*
X160050341Y-95026341D01*
X160179922Y-94919996D01*
X160195094Y-94911886D01*
X160327758Y-94840976D01*
X160488177Y-94792313D01*
X160613196Y-94780000D01*
X160696804Y-94780000D01*
X160821823Y-94792313D01*
X160821823Y-94792313D01*
G37*
G36*
X151296823Y-94792313D02*
G01*
X151457242Y-94840976D01*
X151589906Y-94911886D01*
X151605078Y-94919996D01*
X151734659Y-95026341D01*
X151841004Y-95155922D01*
X151841005Y-95155924D01*
X151920024Y-95303758D01*
X151968687Y-95464177D01*
X151985117Y-95631000D01*
X151968687Y-95797823D01*
X151920024Y-95958242D01*
X151849114Y-96090906D01*
X151841004Y-96106078D01*
X151734659Y-96235659D01*
X151605078Y-96342004D01*
X151605076Y-96342005D01*
X151457242Y-96421024D01*
X151296823Y-96469687D01*
X151171804Y-96482000D01*
X151088196Y-96482000D01*
X150963177Y-96469687D01*
X150802758Y-96421024D01*
X150654924Y-96342005D01*
X150654922Y-96342004D01*
X150525341Y-96235659D01*
X150418996Y-96106078D01*
X150410886Y-96090906D01*
X150339976Y-95958242D01*
X150291313Y-95797823D01*
X150274883Y-95631000D01*
X150291313Y-95464177D01*
X150339976Y-95303758D01*
X150418995Y-95155924D01*
X150418996Y-95155922D01*
X150525341Y-95026341D01*
X150654922Y-94919996D01*
X150670094Y-94911886D01*
X150802758Y-94840976D01*
X150963177Y-94792313D01*
X151088196Y-94780000D01*
X151171804Y-94780000D01*
X151296823Y-94792313D01*
X151296823Y-94792313D01*
G37*
G36*
X132396000Y-90867000D02*
G01*
X130494000Y-90867000D01*
X130494000Y-88965000D01*
X132396000Y-88965000D01*
X132396000Y-90867000D01*
X132396000Y-90867000D01*
G37*
G36*
X134262395Y-89001546D02*
G01*
X134435466Y-89073234D01*
X134435467Y-89073235D01*
X134591227Y-89177310D01*
X134723690Y-89309773D01*
X134723691Y-89309775D01*
X134827766Y-89465534D01*
X134899454Y-89638605D01*
X134936000Y-89822333D01*
X134936000Y-90009667D01*
X134899454Y-90193395D01*
X134827766Y-90366466D01*
X134827765Y-90366467D01*
X134723690Y-90522227D01*
X134591227Y-90654690D01*
X134512818Y-90707081D01*
X134435466Y-90758766D01*
X134262395Y-90830454D01*
X134078667Y-90867000D01*
X133891333Y-90867000D01*
X133707605Y-90830454D01*
X133534534Y-90758766D01*
X133457182Y-90707081D01*
X133378773Y-90654690D01*
X133246310Y-90522227D01*
X133142235Y-90366467D01*
X133142234Y-90366466D01*
X133070546Y-90193395D01*
X133034000Y-90009667D01*
X133034000Y-89822333D01*
X133070546Y-89638605D01*
X133142234Y-89465534D01*
X133246309Y-89309775D01*
X133246310Y-89309773D01*
X133378773Y-89177310D01*
X133534533Y-89073235D01*
X133534534Y-89073234D01*
X133707605Y-89001546D01*
X133891333Y-88965000D01*
X134078667Y-88965000D01*
X134262395Y-89001546D01*
X134262395Y-89001546D01*
G37*
G36*
X146874000Y-90867000D02*
G01*
X144972000Y-90867000D01*
X144972000Y-88965000D01*
X146874000Y-88965000D01*
X146874000Y-90867000D01*
X146874000Y-90867000D01*
G37*
G36*
X148740395Y-89001546D02*
G01*
X148913466Y-89073234D01*
X148913467Y-89073235D01*
X149069227Y-89177310D01*
X149201690Y-89309773D01*
X149201691Y-89309775D01*
X149305766Y-89465534D01*
X149377454Y-89638605D01*
X149414000Y-89822333D01*
X149414000Y-90009667D01*
X149377454Y-90193395D01*
X149305766Y-90366466D01*
X149305765Y-90366467D01*
X149201690Y-90522227D01*
X149069227Y-90654690D01*
X148990818Y-90707081D01*
X148913466Y-90758766D01*
X148740395Y-90830454D01*
X148556667Y-90867000D01*
X148369333Y-90867000D01*
X148185605Y-90830454D01*
X148012534Y-90758766D01*
X147935182Y-90707081D01*
X147856773Y-90654690D01*
X147724310Y-90522227D01*
X147620235Y-90366467D01*
X147620234Y-90366466D01*
X147548546Y-90193395D01*
X147512000Y-90009667D01*
X147512000Y-89822333D01*
X147548546Y-89638605D01*
X147620234Y-89465534D01*
X147724309Y-89309775D01*
X147724310Y-89309773D01*
X147856773Y-89177310D01*
X148012533Y-89073235D01*
X148012534Y-89073234D01*
X148185605Y-89001546D01*
X148369333Y-88965000D01*
X148556667Y-88965000D01*
X148740395Y-89001546D01*
X148740395Y-89001546D01*
G37*
M02*
