M48
; DRILL file {KiCad (5.1.2)-1} date 6/29/2019 1:34:29 PM
; FORMAT={-:-/ absolute / inch / decimal}
; #@! TF.CreationDate,2019-06-29T13:34:29-04:00
; #@! TF.GenerationSoftware,Kicad,Pcbnew,(5.1.2)-1
; #@! TF.FileFunction,Plated,1,2,PTH
FMAT,2
INCH
T1C0.0315
T2C0.0354
T3C0.0400
%
G90
G05
T1
X6.2Y-3.765
X6.2Y-4.065
X6.075Y-3.765
X6.075Y-4.065
X6.325Y-3.765
X6.325Y-4.065
X5.95Y-3.765
X5.95Y-4.065
T2
X8.71Y-4.565
X8.81Y-4.565
X5.745Y-3.54
X5.845Y-3.54
X5.175Y-3.54
X5.275Y-3.54
X8.155Y-4.565
X8.255Y-4.565
T3
X5.4224Y-3.8758
X5.4224Y-3.9758
X5.5224Y-3.8758
X5.5224Y-3.9758
X5.6224Y-3.8758
X5.6224Y-3.9758
T0
M30
