G04 #@! TF.GenerationSoftware,KiCad,Pcbnew,(5.1.2)-1*
G04 #@! TF.CreationDate,2019-06-29T13:34:35-04:00*
G04 #@! TF.ProjectId,linecon27,6c696e65-636f-46e3-9237-2e6b69636164,rev?*
G04 #@! TF.SameCoordinates,Original*
G04 #@! TF.FileFunction,Legend,Top*
G04 #@! TF.FilePolarity,Positive*
%FSLAX46Y46*%
G04 Gerber Fmt 4.6, Leading zero omitted, Abs format (unit mm)*
G04 Created by KiCad (PCBNEW (5.1.2)-1) date 2019-06-29 13:34:35*
%MOMM*%
%LPD*%
G04 APERTURE LIST*
%ADD10C,0.010000*%
%ADD11C,0.500000*%
%ADD12C,0.120000*%
G04 APERTURE END LIST*
D10*
G36*
X216407934Y-117212536D02*
G01*
X216887270Y-117607837D01*
X217527468Y-118213110D01*
X217678000Y-118364000D01*
X218310191Y-119034817D01*
X218751607Y-119563046D01*
X218923942Y-119853262D01*
X218918234Y-119875431D01*
X218694065Y-119769463D01*
X218214729Y-119374162D01*
X217574531Y-118768889D01*
X217424000Y-118618000D01*
X216791808Y-117947182D01*
X216350392Y-117418953D01*
X216178057Y-117128737D01*
X216183765Y-117106568D01*
X216407934Y-117212536D01*
X216407934Y-117212536D01*
G37*
X216407934Y-117212536D02*
X216887270Y-117607837D01*
X217527468Y-118213110D01*
X217678000Y-118364000D01*
X218310191Y-119034817D01*
X218751607Y-119563046D01*
X218923942Y-119853262D01*
X218918234Y-119875431D01*
X218694065Y-119769463D01*
X218214729Y-119374162D01*
X217574531Y-118768889D01*
X217424000Y-118618000D01*
X216791808Y-117947182D01*
X216350392Y-117418953D01*
X216178057Y-117128737D01*
X216183765Y-117106568D01*
X216407934Y-117212536D01*
G36*
X216641740Y-114065434D02*
G01*
X217207624Y-114599472D01*
X217573656Y-114963178D01*
X218372150Y-115822306D01*
X218803183Y-116449503D01*
X218911015Y-116910415D01*
X218907156Y-116941095D01*
X218829122Y-117190142D01*
X218653184Y-117205496D01*
X218303718Y-116944789D01*
X217705102Y-116365650D01*
X217487500Y-116145690D01*
X216634629Y-115177716D01*
X216205936Y-114439295D01*
X216154000Y-114167773D01*
X216184876Y-113888776D01*
X216324140Y-113841599D01*
X216641740Y-114065434D01*
X216641740Y-114065434D01*
G37*
X216641740Y-114065434D02*
X217207624Y-114599472D01*
X217573656Y-114963178D01*
X218372150Y-115822306D01*
X218803183Y-116449503D01*
X218911015Y-116910415D01*
X218907156Y-116941095D01*
X218829122Y-117190142D01*
X218653184Y-117205496D01*
X218303718Y-116944789D01*
X217705102Y-116365650D01*
X217487500Y-116145690D01*
X216634629Y-115177716D01*
X216205936Y-114439295D01*
X216154000Y-114167773D01*
X216184876Y-113888776D01*
X216324140Y-113841599D01*
X216641740Y-114065434D01*
G36*
X217568887Y-111402409D02*
G01*
X218287838Y-112146989D01*
X218703622Y-112676594D01*
X218888306Y-113118684D01*
X218913954Y-113600722D01*
X218902387Y-113760957D01*
X218821000Y-114704618D01*
X217487500Y-113351322D01*
X216780808Y-112598046D01*
X216376146Y-112039053D01*
X216193837Y-111533420D01*
X216154000Y-110992773D01*
X216154000Y-109987521D01*
X217568887Y-111402409D01*
X217568887Y-111402409D01*
G37*
X217568887Y-111402409D02*
X218287838Y-112146989D01*
X218703622Y-112676594D01*
X218888306Y-113118684D01*
X218913954Y-113600722D01*
X218902387Y-113760957D01*
X218821000Y-114704618D01*
X217487500Y-113351322D01*
X216780808Y-112598046D01*
X216376146Y-112039053D01*
X216193837Y-111533420D01*
X216154000Y-110992773D01*
X216154000Y-109987521D01*
X217568887Y-111402409D01*
G36*
X205946550Y-102786081D02*
G01*
X206433085Y-102967982D01*
X206971410Y-103367693D01*
X207696977Y-104064200D01*
X207772000Y-104140000D01*
X208459409Y-104804857D01*
X209028039Y-105298054D01*
X209372994Y-105529889D01*
X209405646Y-105537000D01*
X209363351Y-105373961D01*
X209024951Y-104941130D01*
X208458477Y-104322934D01*
X208280000Y-104140000D01*
X206900353Y-102743000D01*
X211597635Y-102743000D01*
X211526317Y-105854500D01*
X211455000Y-108966000D01*
X201549000Y-109230920D01*
X211455000Y-109474000D01*
X211531175Y-110934500D01*
X211607351Y-112395000D01*
X198882000Y-112395000D01*
X198882000Y-106045000D01*
X203708000Y-106045000D01*
X205516106Y-106031918D01*
X206929972Y-105993784D01*
X207917958Y-105932262D01*
X208448426Y-105849018D01*
X208534000Y-105791000D01*
X208314610Y-105607520D01*
X207826823Y-105537000D01*
X207296867Y-105411168D01*
X206659418Y-104994092D01*
X205825788Y-104226402D01*
X205740000Y-104140000D01*
X204360353Y-102743000D01*
X205376353Y-102743000D01*
X205946550Y-102786081D01*
X205946550Y-102786081D01*
G37*
X205946550Y-102786081D02*
X206433085Y-102967982D01*
X206971410Y-103367693D01*
X207696977Y-104064200D01*
X207772000Y-104140000D01*
X208459409Y-104804857D01*
X209028039Y-105298054D01*
X209372994Y-105529889D01*
X209405646Y-105537000D01*
X209363351Y-105373961D01*
X209024951Y-104941130D01*
X208458477Y-104322934D01*
X208280000Y-104140000D01*
X206900353Y-102743000D01*
X211597635Y-102743000D01*
X211526317Y-105854500D01*
X211455000Y-108966000D01*
X201549000Y-109230920D01*
X211455000Y-109474000D01*
X211531175Y-110934500D01*
X211607351Y-112395000D01*
X198882000Y-112395000D01*
X198882000Y-106045000D01*
X203708000Y-106045000D01*
X205516106Y-106031918D01*
X206929972Y-105993784D01*
X207917958Y-105932262D01*
X208448426Y-105849018D01*
X208534000Y-105791000D01*
X208314610Y-105607520D01*
X207826823Y-105537000D01*
X207296867Y-105411168D01*
X206659418Y-104994092D01*
X205825788Y-104226402D01*
X205740000Y-104140000D01*
X204360353Y-102743000D01*
X205376353Y-102743000D01*
X205946550Y-102786081D01*
G36*
X225298000Y-109093000D02*
G01*
X222805521Y-109093000D01*
X221651625Y-109100712D01*
X220885297Y-109141607D01*
X220386150Y-109242325D01*
X220033795Y-109429504D01*
X219707841Y-109729781D01*
X219648765Y-109791500D01*
X219161003Y-110515144D01*
X218905546Y-111301568D01*
X218902744Y-111327569D01*
X218821000Y-112165139D01*
X217487500Y-110811582D01*
X216843601Y-110128138D01*
X216370419Y-109568981D01*
X216157852Y-109241451D01*
X216154000Y-109219378D01*
X216321582Y-108939086D01*
X216766852Y-108405629D01*
X217403594Y-107720298D01*
X217606548Y-107512865D01*
X219059097Y-106045000D01*
X220781548Y-106045000D01*
X221672240Y-106010458D01*
X222285266Y-105918332D01*
X222504000Y-105791000D01*
X222258345Y-105684468D01*
X221553734Y-105604279D01*
X220438700Y-105553953D01*
X219002823Y-105537000D01*
X215501646Y-105537000D01*
X214122000Y-104140000D01*
X212742353Y-102743000D01*
X225298000Y-102743000D01*
X225298000Y-109093000D01*
X225298000Y-109093000D01*
G37*
X225298000Y-109093000D02*
X222805521Y-109093000D01*
X221651625Y-109100712D01*
X220885297Y-109141607D01*
X220386150Y-109242325D01*
X220033795Y-109429504D01*
X219707841Y-109729781D01*
X219648765Y-109791500D01*
X219161003Y-110515144D01*
X218905546Y-111301568D01*
X218902744Y-111327569D01*
X218821000Y-112165139D01*
X217487500Y-110811582D01*
X216843601Y-110128138D01*
X216370419Y-109568981D01*
X216157852Y-109241451D01*
X216154000Y-109219378D01*
X216321582Y-108939086D01*
X216766852Y-108405629D01*
X217403594Y-107720298D01*
X217606548Y-107512865D01*
X219059097Y-106045000D01*
X220781548Y-106045000D01*
X221672240Y-106010458D01*
X222285266Y-105918332D01*
X222504000Y-105791000D01*
X222258345Y-105684468D01*
X221553734Y-105604279D01*
X220438700Y-105553953D01*
X219002823Y-105537000D01*
X215501646Y-105537000D01*
X214122000Y-104140000D01*
X212742353Y-102743000D01*
X225298000Y-102743000D01*
X225298000Y-109093000D01*
G36*
X199568591Y-102912459D02*
G01*
X200101269Y-103361038D01*
X200773493Y-103999034D01*
X200914000Y-104140000D01*
X201529194Y-104792948D01*
X201934218Y-105282753D01*
X202061044Y-105524987D01*
X202039646Y-105537000D01*
X201751408Y-105367540D01*
X201218730Y-104918961D01*
X200546506Y-104280965D01*
X200406000Y-104140000D01*
X199790805Y-103487051D01*
X199385781Y-102997246D01*
X199258955Y-102755012D01*
X199280353Y-102743000D01*
X199568591Y-102912459D01*
X199568591Y-102912459D01*
G37*
X199568591Y-102912459D02*
X200101269Y-103361038D01*
X200773493Y-103999034D01*
X200914000Y-104140000D01*
X201529194Y-104792948D01*
X201934218Y-105282753D01*
X202061044Y-105524987D01*
X202039646Y-105537000D01*
X201751408Y-105367540D01*
X201218730Y-104918961D01*
X200546506Y-104280965D01*
X200406000Y-104140000D01*
X199790805Y-103487051D01*
X199385781Y-102997246D01*
X199258955Y-102755012D01*
X199280353Y-102743000D01*
X199568591Y-102912459D01*
G36*
X202787359Y-102937390D02*
G01*
X203581937Y-103534591D01*
X204216000Y-104140000D01*
X204894027Y-104839325D01*
X205246300Y-105256431D01*
X205311199Y-105463319D01*
X205127102Y-105531990D01*
X204960646Y-105537000D01*
X204374640Y-105342609D01*
X203580062Y-104745408D01*
X202946000Y-104140000D01*
X202267972Y-103440674D01*
X201915699Y-103023568D01*
X201850800Y-102816680D01*
X202034897Y-102748009D01*
X202201353Y-102743000D01*
X202787359Y-102937390D01*
X202787359Y-102937390D01*
G37*
X202787359Y-102937390D02*
X203581937Y-103534591D01*
X204216000Y-104140000D01*
X204894027Y-104839325D01*
X205246300Y-105256431D01*
X205311199Y-105463319D01*
X205127102Y-105531990D01*
X204960646Y-105537000D01*
X204374640Y-105342609D01*
X203580062Y-104745408D01*
X202946000Y-104140000D01*
X202267972Y-103440674D01*
X201915699Y-103023568D01*
X201850800Y-102816680D01*
X202034897Y-102748009D01*
X202201353Y-102743000D01*
X202787359Y-102937390D01*
G36*
X136905934Y-90796536D02*
G01*
X137385270Y-91191837D01*
X138025468Y-91797110D01*
X138176000Y-91948000D01*
X138808191Y-92618817D01*
X139249607Y-93147046D01*
X139421942Y-93437262D01*
X139416234Y-93459431D01*
X139192065Y-93353463D01*
X138712729Y-92958162D01*
X138072531Y-92352889D01*
X137922000Y-92202000D01*
X137289808Y-91531182D01*
X136848392Y-91002953D01*
X136676057Y-90712737D01*
X136681765Y-90690568D01*
X136905934Y-90796536D01*
X136905934Y-90796536D01*
G37*
X136905934Y-90796536D02*
X137385270Y-91191837D01*
X138025468Y-91797110D01*
X138176000Y-91948000D01*
X138808191Y-92618817D01*
X139249607Y-93147046D01*
X139421942Y-93437262D01*
X139416234Y-93459431D01*
X139192065Y-93353463D01*
X138712729Y-92958162D01*
X138072531Y-92352889D01*
X137922000Y-92202000D01*
X137289808Y-91531182D01*
X136848392Y-91002953D01*
X136676057Y-90712737D01*
X136681765Y-90690568D01*
X136905934Y-90796536D01*
G36*
X141223934Y-90796536D02*
G01*
X141703270Y-91191837D01*
X142343468Y-91797110D01*
X142494000Y-91948000D01*
X143126191Y-92618817D01*
X143567607Y-93147046D01*
X143739942Y-93437262D01*
X143734234Y-93459431D01*
X143510065Y-93353463D01*
X143030729Y-92958162D01*
X142390531Y-92352889D01*
X142240000Y-92202000D01*
X141607808Y-91531182D01*
X141166392Y-91002953D01*
X140994057Y-90712737D01*
X140999765Y-90690568D01*
X141223934Y-90796536D01*
X141223934Y-90796536D01*
G37*
X141223934Y-90796536D02*
X141703270Y-91191837D01*
X142343468Y-91797110D01*
X142494000Y-91948000D01*
X143126191Y-92618817D01*
X143567607Y-93147046D01*
X143739942Y-93437262D01*
X143734234Y-93459431D01*
X143510065Y-93353463D01*
X143030729Y-92958162D01*
X142390531Y-92352889D01*
X142240000Y-92202000D01*
X141607808Y-91531182D01*
X141166392Y-91002953D01*
X140994057Y-90712737D01*
X140999765Y-90690568D01*
X141223934Y-90796536D01*
G36*
X198119934Y-90796536D02*
G01*
X198599270Y-91191837D01*
X199239468Y-91797110D01*
X199390000Y-91948000D01*
X200022191Y-92618817D01*
X200463607Y-93147046D01*
X200635942Y-93437262D01*
X200630234Y-93459431D01*
X200406065Y-93353463D01*
X199926729Y-92958162D01*
X199286531Y-92352889D01*
X199136000Y-92202000D01*
X198503808Y-91531182D01*
X198062392Y-91002953D01*
X197890057Y-90712737D01*
X197895765Y-90690568D01*
X198119934Y-90796536D01*
X198119934Y-90796536D01*
G37*
X198119934Y-90796536D02*
X198599270Y-91191837D01*
X199239468Y-91797110D01*
X199390000Y-91948000D01*
X200022191Y-92618817D01*
X200463607Y-93147046D01*
X200635942Y-93437262D01*
X200630234Y-93459431D01*
X200406065Y-93353463D01*
X199926729Y-92958162D01*
X199286531Y-92352889D01*
X199136000Y-92202000D01*
X198503808Y-91531182D01*
X198062392Y-91002953D01*
X197890057Y-90712737D01*
X197895765Y-90690568D01*
X198119934Y-90796536D01*
G36*
X137256344Y-87523916D02*
G01*
X137879052Y-88094146D01*
X138269228Y-88484712D01*
X138960762Y-89243050D01*
X139318814Y-89806105D01*
X139411700Y-90289437D01*
X139402679Y-90401967D01*
X139345312Y-90733455D01*
X139225978Y-90840780D01*
X138965078Y-90686187D01*
X138483016Y-90231919D01*
X137985500Y-89729767D01*
X137250440Y-88904675D01*
X136784635Y-88214645D01*
X136652000Y-87812512D01*
X136700066Y-87406895D01*
X136882432Y-87302764D01*
X137256344Y-87523916D01*
X137256344Y-87523916D01*
G37*
X137256344Y-87523916D02*
X137879052Y-88094146D01*
X138269228Y-88484712D01*
X138960762Y-89243050D01*
X139318814Y-89806105D01*
X139411700Y-90289437D01*
X139402679Y-90401967D01*
X139345312Y-90733455D01*
X139225978Y-90840780D01*
X138965078Y-90686187D01*
X138483016Y-90231919D01*
X137985500Y-89729767D01*
X137250440Y-88904675D01*
X136784635Y-88214645D01*
X136652000Y-87812512D01*
X136700066Y-87406895D01*
X136882432Y-87302764D01*
X137256344Y-87523916D01*
G36*
X141574344Y-87523916D02*
G01*
X142197052Y-88094146D01*
X142587228Y-88484712D01*
X143278762Y-89243050D01*
X143636814Y-89806105D01*
X143729700Y-90289437D01*
X143720679Y-90401967D01*
X143663312Y-90733455D01*
X143543978Y-90840780D01*
X143283078Y-90686187D01*
X142801016Y-90231919D01*
X142303500Y-89729767D01*
X141568440Y-88904675D01*
X141102635Y-88214645D01*
X140970000Y-87812512D01*
X141018066Y-87406895D01*
X141200432Y-87302764D01*
X141574344Y-87523916D01*
X141574344Y-87523916D01*
G37*
X141574344Y-87523916D02*
X142197052Y-88094146D01*
X142587228Y-88484712D01*
X143278762Y-89243050D01*
X143636814Y-89806105D01*
X143729700Y-90289437D01*
X143720679Y-90401967D01*
X143663312Y-90733455D01*
X143543978Y-90840780D01*
X143283078Y-90686187D01*
X142801016Y-90231919D01*
X142303500Y-89729767D01*
X141568440Y-88904675D01*
X141102635Y-88214645D01*
X140970000Y-87812512D01*
X141018066Y-87406895D01*
X141200432Y-87302764D01*
X141574344Y-87523916D01*
G36*
X198470344Y-87523916D02*
G01*
X199093052Y-88094146D01*
X199483228Y-88484712D01*
X200174762Y-89243050D01*
X200532814Y-89806105D01*
X200625700Y-90289437D01*
X200616679Y-90401967D01*
X200559312Y-90733455D01*
X200439978Y-90840780D01*
X200179078Y-90686187D01*
X199697016Y-90231919D01*
X199199500Y-89729767D01*
X198464440Y-88904675D01*
X197998635Y-88214645D01*
X197866000Y-87812512D01*
X197914066Y-87406895D01*
X198096432Y-87302764D01*
X198470344Y-87523916D01*
X198470344Y-87523916D01*
G37*
X198470344Y-87523916D02*
X199093052Y-88094146D01*
X199483228Y-88484712D01*
X200174762Y-89243050D01*
X200532814Y-89806105D01*
X200625700Y-90289437D01*
X200616679Y-90401967D01*
X200559312Y-90733455D01*
X200439978Y-90840780D01*
X200179078Y-90686187D01*
X199697016Y-90231919D01*
X199199500Y-89729767D01*
X198464440Y-88904675D01*
X197998635Y-88214645D01*
X197866000Y-87812512D01*
X197914066Y-87406895D01*
X198096432Y-87302764D01*
X198470344Y-87523916D01*
G36*
X138066887Y-84986409D02*
G01*
X138785838Y-85730989D01*
X139201622Y-86260594D01*
X139386306Y-86702684D01*
X139411954Y-87184722D01*
X139400387Y-87344957D01*
X139319000Y-88288618D01*
X137985500Y-86935322D01*
X137278808Y-86182046D01*
X136874146Y-85623053D01*
X136691837Y-85117420D01*
X136652000Y-84576773D01*
X136652000Y-83571521D01*
X138066887Y-84986409D01*
X138066887Y-84986409D01*
G37*
X138066887Y-84986409D02*
X138785838Y-85730989D01*
X139201622Y-86260594D01*
X139386306Y-86702684D01*
X139411954Y-87184722D01*
X139400387Y-87344957D01*
X139319000Y-88288618D01*
X137985500Y-86935322D01*
X137278808Y-86182046D01*
X136874146Y-85623053D01*
X136691837Y-85117420D01*
X136652000Y-84576773D01*
X136652000Y-83571521D01*
X138066887Y-84986409D01*
G36*
X142384887Y-84986409D02*
G01*
X143103838Y-85730989D01*
X143519622Y-86260594D01*
X143704306Y-86702684D01*
X143729954Y-87184722D01*
X143718387Y-87344957D01*
X143637000Y-88288618D01*
X142303500Y-86935322D01*
X141596808Y-86182046D01*
X141192146Y-85623053D01*
X141009837Y-85117420D01*
X140970000Y-84576773D01*
X140970000Y-83571521D01*
X142384887Y-84986409D01*
X142384887Y-84986409D01*
G37*
X142384887Y-84986409D02*
X143103838Y-85730989D01*
X143519622Y-86260594D01*
X143704306Y-86702684D01*
X143729954Y-87184722D01*
X143718387Y-87344957D01*
X143637000Y-88288618D01*
X142303500Y-86935322D01*
X141596808Y-86182046D01*
X141192146Y-85623053D01*
X141009837Y-85117420D01*
X140970000Y-84576773D01*
X140970000Y-83571521D01*
X142384887Y-84986409D01*
G36*
X199280887Y-84986409D02*
G01*
X199999838Y-85730989D01*
X200415622Y-86260594D01*
X200600306Y-86702684D01*
X200625954Y-87184722D01*
X200614387Y-87344957D01*
X200533000Y-88288618D01*
X199199500Y-86935322D01*
X198492808Y-86182046D01*
X198088146Y-85623053D01*
X197905837Y-85117420D01*
X197866000Y-84576773D01*
X197866000Y-83571521D01*
X199280887Y-84986409D01*
X199280887Y-84986409D01*
G37*
X199280887Y-84986409D02*
X199999838Y-85730989D01*
X200415622Y-86260594D01*
X200600306Y-86702684D01*
X200625954Y-87184722D01*
X200614387Y-87344957D01*
X200533000Y-88288618D01*
X199199500Y-86935322D01*
X198492808Y-86182046D01*
X198088146Y-85623053D01*
X197905837Y-85117420D01*
X197866000Y-84576773D01*
X197866000Y-83571521D01*
X199280887Y-84986409D01*
G36*
X124841000Y-78612999D02*
G01*
X126238000Y-79992646D01*
X126238000Y-83439000D01*
X132984902Y-83439000D01*
X134493000Y-84963000D01*
X136001097Y-86487000D01*
X123444000Y-86487000D01*
X123444000Y-81860176D01*
X123443999Y-77233353D01*
X124841000Y-78612999D01*
X124841000Y-78612999D01*
G37*
X124841000Y-78612999D02*
X126238000Y-79992646D01*
X126238000Y-83439000D01*
X132984902Y-83439000D01*
X134493000Y-84963000D01*
X136001097Y-86487000D01*
X123444000Y-86487000D01*
X123444000Y-81860176D01*
X123443999Y-77233353D01*
X124841000Y-78612999D01*
G36*
X145796000Y-77723999D02*
G01*
X150622000Y-80139542D01*
X150622000Y-76215902D01*
X152146000Y-77723999D01*
X153670000Y-79232097D01*
X153670000Y-86487000D01*
X150622000Y-86487000D01*
X150622000Y-83696634D01*
X147323626Y-82043817D01*
X146145992Y-81457975D01*
X145135698Y-80963465D01*
X144376557Y-80600684D01*
X143952382Y-80410033D01*
X143894626Y-80391000D01*
X143841500Y-80627673D01*
X143798776Y-81268445D01*
X143771440Y-82209442D01*
X143764000Y-83112823D01*
X143764000Y-85834646D01*
X142367000Y-84455000D01*
X140970000Y-83075353D01*
X140970000Y-75308457D01*
X145796000Y-77723999D01*
X145796000Y-77723999D01*
G37*
X145796000Y-77723999D02*
X150622000Y-80139542D01*
X150622000Y-76215902D01*
X152146000Y-77723999D01*
X153670000Y-79232097D01*
X153670000Y-86487000D01*
X150622000Y-86487000D01*
X150622000Y-83696634D01*
X147323626Y-82043817D01*
X146145992Y-81457975D01*
X145135698Y-80963465D01*
X144376557Y-80600684D01*
X143952382Y-80410033D01*
X143894626Y-80391000D01*
X143841500Y-80627673D01*
X143798776Y-81268445D01*
X143771440Y-82209442D01*
X143764000Y-83112823D01*
X143764000Y-85834646D01*
X142367000Y-84455000D01*
X140970000Y-83075353D01*
X140970000Y-75308457D01*
X145796000Y-77723999D01*
G36*
X156707517Y-76884910D02*
G01*
X157198987Y-77087137D01*
X157761533Y-77520426D01*
X158496000Y-78232000D01*
X159875646Y-79629000D01*
X157988000Y-79629000D01*
X157988000Y-83439000D01*
X164734902Y-83439000D01*
X166243000Y-84963000D01*
X167751097Y-86487000D01*
X155194000Y-86487000D01*
X155194000Y-76835000D01*
X156155176Y-76835000D01*
X156707517Y-76884910D01*
X156707517Y-76884910D01*
G37*
X156707517Y-76884910D02*
X157198987Y-77087137D01*
X157761533Y-77520426D01*
X158496000Y-78232000D01*
X159875646Y-79629000D01*
X157988000Y-79629000D01*
X157988000Y-83439000D01*
X164734902Y-83439000D01*
X166243000Y-84963000D01*
X167751097Y-86487000D01*
X155194000Y-86487000D01*
X155194000Y-76835000D01*
X156155176Y-76835000D01*
X156707517Y-76884910D01*
G36*
X170931517Y-76884910D02*
G01*
X171422987Y-77087137D01*
X171985533Y-77520426D01*
X172720000Y-78232000D01*
X174099646Y-79629000D01*
X172212000Y-79629000D01*
X172212000Y-83439000D01*
X178958902Y-83439000D01*
X180467000Y-84963000D01*
X181975097Y-86487000D01*
X169418000Y-86487000D01*
X169418000Y-76835000D01*
X170379176Y-76835000D01*
X170931517Y-76884910D01*
X170931517Y-76884910D01*
G37*
X170931517Y-76884910D02*
X171422987Y-77087137D01*
X171985533Y-77520426D01*
X172720000Y-78232000D01*
X174099646Y-79629000D01*
X172212000Y-79629000D01*
X172212000Y-83439000D01*
X178958902Y-83439000D01*
X180467000Y-84963000D01*
X181975097Y-86487000D01*
X169418000Y-86487000D01*
X169418000Y-76835000D01*
X170379176Y-76835000D01*
X170931517Y-76884910D01*
G36*
X184147793Y-83688011D02*
G01*
X184631278Y-84088394D01*
X185286432Y-84703687D01*
X185553573Y-84969642D01*
X186202450Y-85653131D01*
X186647272Y-86176784D01*
X186821416Y-86459522D01*
X186800372Y-86487000D01*
X186511546Y-86317549D01*
X185978718Y-85869148D01*
X185307165Y-85231719D01*
X185172205Y-85096284D01*
X184538281Y-84423931D01*
X184094773Y-83894135D01*
X183919866Y-83602048D01*
X183925406Y-83578926D01*
X184147793Y-83688011D01*
X184147793Y-83688011D01*
G37*
X184147793Y-83688011D02*
X184631278Y-84088394D01*
X185286432Y-84703687D01*
X185553573Y-84969642D01*
X186202450Y-85653131D01*
X186647272Y-86176784D01*
X186821416Y-86459522D01*
X186800372Y-86487000D01*
X186511546Y-86317549D01*
X185978718Y-85869148D01*
X185307165Y-85231719D01*
X185172205Y-85096284D01*
X184538281Y-84423931D01*
X184094773Y-83894135D01*
X183919866Y-83602048D01*
X183925406Y-83578926D01*
X184147793Y-83688011D01*
G36*
X187252135Y-83614771D02*
G01*
X188000309Y-84161394D01*
X188849000Y-84963000D01*
X189566391Y-85700494D01*
X189957994Y-86153043D01*
X190062996Y-86389049D01*
X189920586Y-86476916D01*
X189722097Y-86487000D01*
X189175864Y-86311228D01*
X188427690Y-85764605D01*
X187579000Y-84963000D01*
X186861608Y-84225505D01*
X186470005Y-83772956D01*
X186365003Y-83536950D01*
X186507413Y-83449083D01*
X186705902Y-83439000D01*
X187252135Y-83614771D01*
X187252135Y-83614771D01*
G37*
X187252135Y-83614771D02*
X188000309Y-84161394D01*
X188849000Y-84963000D01*
X189566391Y-85700494D01*
X189957994Y-86153043D01*
X190062996Y-86389049D01*
X189920586Y-86476916D01*
X189722097Y-86487000D01*
X189175864Y-86311228D01*
X188427690Y-85764605D01*
X187579000Y-84963000D01*
X186861608Y-84225505D01*
X186470005Y-83772956D01*
X186365003Y-83536950D01*
X186507413Y-83449083D01*
X186705902Y-83439000D01*
X187252135Y-83614771D01*
G36*
X190516602Y-83523336D02*
G01*
X191067487Y-83820823D01*
X191773123Y-84398181D01*
X192366787Y-84958199D01*
X193929000Y-86477399D01*
X192904323Y-86482199D01*
X192320612Y-86441423D01*
X191829136Y-86259010D01*
X191288202Y-85854348D01*
X190556120Y-85146826D01*
X190554823Y-85145512D01*
X189914207Y-84473932D01*
X189443880Y-83937211D01*
X189233583Y-83638582D01*
X189230000Y-83621512D01*
X189451535Y-83494908D01*
X189987627Y-83439128D01*
X190017287Y-83439000D01*
X190516602Y-83523336D01*
X190516602Y-83523336D01*
G37*
X190516602Y-83523336D02*
X191067487Y-83820823D01*
X191773123Y-84398181D01*
X192366787Y-84958199D01*
X193929000Y-86477399D01*
X192904323Y-86482199D01*
X192320612Y-86441423D01*
X191829136Y-86259010D01*
X191288202Y-85854348D01*
X190556120Y-85146826D01*
X190554823Y-85145512D01*
X189914207Y-84473932D01*
X189443880Y-83937211D01*
X189233583Y-83638582D01*
X189230000Y-83621512D01*
X189451535Y-83494908D01*
X189987627Y-83439128D01*
X190017287Y-83439000D01*
X190516602Y-83523336D01*
G36*
X196342000Y-86487000D02*
G01*
X195381548Y-86487000D01*
X194854015Y-86441564D01*
X194380485Y-86255459D01*
X193839971Y-85853990D01*
X193111481Y-85162461D01*
X192913000Y-84963000D01*
X191404902Y-83439000D01*
X193294000Y-83439000D01*
X193294000Y-79629000D01*
X186436000Y-79629000D01*
X186436000Y-83185000D01*
X183642000Y-83185000D01*
X183642000Y-76835000D01*
X196342000Y-76835000D01*
X196342000Y-86487000D01*
X196342000Y-86487000D01*
G37*
X196342000Y-86487000D02*
X195381548Y-86487000D01*
X194854015Y-86441564D01*
X194380485Y-86255459D01*
X193839971Y-85853990D01*
X193111481Y-85162461D01*
X192913000Y-84963000D01*
X191404902Y-83439000D01*
X193294000Y-83439000D01*
X193294000Y-79629000D01*
X186436000Y-79629000D01*
X186436000Y-83185000D01*
X183642000Y-83185000D01*
X183642000Y-76835000D01*
X196342000Y-76835000D01*
X196342000Y-86487000D01*
G36*
X202692000Y-77723999D02*
G01*
X207518000Y-80139542D01*
X207518000Y-76215902D01*
X209042000Y-77723999D01*
X210566000Y-79232097D01*
X210566000Y-86487000D01*
X207518000Y-86487000D01*
X207518000Y-83696634D01*
X204219626Y-82043817D01*
X203041992Y-81457975D01*
X202031698Y-80963465D01*
X201272557Y-80600684D01*
X200848382Y-80410033D01*
X200790626Y-80391000D01*
X200737500Y-80627673D01*
X200694776Y-81268445D01*
X200667440Y-82209442D01*
X200660000Y-83112823D01*
X200660000Y-85834646D01*
X199263000Y-84455000D01*
X197866000Y-83075353D01*
X197866000Y-75308457D01*
X202692000Y-77723999D01*
X202692000Y-77723999D01*
G37*
X202692000Y-77723999D02*
X207518000Y-80139542D01*
X207518000Y-76215902D01*
X209042000Y-77723999D01*
X210566000Y-79232097D01*
X210566000Y-86487000D01*
X207518000Y-86487000D01*
X207518000Y-83696634D01*
X204219626Y-82043817D01*
X203041992Y-81457975D01*
X202031698Y-80963465D01*
X201272557Y-80600684D01*
X200848382Y-80410033D01*
X200790626Y-80391000D01*
X200737500Y-80627673D01*
X200694776Y-81268445D01*
X200667440Y-82209442D01*
X200660000Y-83112823D01*
X200660000Y-85834646D01*
X199263000Y-84455000D01*
X197866000Y-83075353D01*
X197866000Y-75308457D01*
X202692000Y-77723999D01*
G36*
X139446000Y-81280000D02*
G01*
X139442095Y-82718935D01*
X139431262Y-83963694D01*
X139414820Y-84932987D01*
X139394089Y-85545527D01*
X139373823Y-85725000D01*
X139174267Y-85558127D01*
X138713275Y-85117246D01*
X138084163Y-84491964D01*
X137976823Y-84383512D01*
X136652000Y-83042025D01*
X136652000Y-76835000D01*
X139446000Y-76835000D01*
X139446000Y-81280000D01*
X139446000Y-81280000D01*
G37*
X139446000Y-81280000D02*
X139442095Y-82718935D01*
X139431262Y-83963694D01*
X139414820Y-84932987D01*
X139394089Y-85545527D01*
X139373823Y-85725000D01*
X139174267Y-85558127D01*
X138713275Y-85117246D01*
X138084163Y-84491964D01*
X137976823Y-84383512D01*
X136652000Y-83042025D01*
X136652000Y-76835000D01*
X139446000Y-76835000D01*
X139446000Y-81280000D01*
G36*
X167843175Y-81597500D02*
G01*
X167767000Y-83058000D01*
X163196903Y-83127611D01*
X158626806Y-83197223D01*
X160140952Y-81667111D01*
X161655097Y-80137000D01*
X167919351Y-80137000D01*
X167843175Y-81597500D01*
X167843175Y-81597500D01*
G37*
X167843175Y-81597500D02*
X167767000Y-83058000D01*
X163196903Y-83127611D01*
X158626806Y-83197223D01*
X160140952Y-81667111D01*
X161655097Y-80137000D01*
X167919351Y-80137000D01*
X167843175Y-81597500D01*
G36*
X159300072Y-76896741D02*
G01*
X159806354Y-77133722D01*
X160412272Y-77623575D01*
X161036000Y-78232000D01*
X162415646Y-79629000D01*
X161526646Y-79629000D01*
X160993927Y-79567258D01*
X160487645Y-79330277D01*
X159881727Y-78840424D01*
X159258000Y-78232000D01*
X157878353Y-76835000D01*
X158767353Y-76835000D01*
X159300072Y-76896741D01*
X159300072Y-76896741D01*
G37*
X159300072Y-76896741D02*
X159806354Y-77133722D01*
X160412272Y-77623575D01*
X161036000Y-78232000D01*
X162415646Y-79629000D01*
X161526646Y-79629000D01*
X160993927Y-79567258D01*
X160487645Y-79330277D01*
X159881727Y-78840424D01*
X159258000Y-78232000D01*
X157878353Y-76835000D01*
X158767353Y-76835000D01*
X159300072Y-76896741D01*
G36*
X162461124Y-76932614D02*
G01*
X163035612Y-77271941D01*
X163772713Y-77922710D01*
X164084000Y-78232000D01*
X165463646Y-79629000D01*
X164701646Y-79629000D01*
X164182875Y-79531385D01*
X163608387Y-79192058D01*
X162871286Y-78541289D01*
X162560000Y-78232000D01*
X161180353Y-76835000D01*
X161942353Y-76835000D01*
X162461124Y-76932614D01*
X162461124Y-76932614D01*
G37*
X162461124Y-76932614D02*
X163035612Y-77271941D01*
X163772713Y-77922710D01*
X164084000Y-78232000D01*
X165463646Y-79629000D01*
X164701646Y-79629000D01*
X164182875Y-79531385D01*
X163608387Y-79192058D01*
X162871286Y-78541289D01*
X162560000Y-78232000D01*
X161180353Y-76835000D01*
X161942353Y-76835000D01*
X162461124Y-76932614D01*
G36*
X165024591Y-77004459D02*
G01*
X165557269Y-77453038D01*
X166229493Y-78091034D01*
X166370000Y-78232000D01*
X166985194Y-78884948D01*
X167390218Y-79374753D01*
X167517044Y-79616987D01*
X167495646Y-79629000D01*
X167207408Y-79459540D01*
X166674730Y-79010961D01*
X166002506Y-78372965D01*
X165862000Y-78232000D01*
X165246805Y-77579051D01*
X164841781Y-77089246D01*
X164714955Y-76847012D01*
X164736353Y-76835000D01*
X165024591Y-77004459D01*
X165024591Y-77004459D01*
G37*
X165024591Y-77004459D02*
X165557269Y-77453038D01*
X166229493Y-78091034D01*
X166370000Y-78232000D01*
X166985194Y-78884948D01*
X167390218Y-79374753D01*
X167517044Y-79616987D01*
X167495646Y-79629000D01*
X167207408Y-79459540D01*
X166674730Y-79010961D01*
X166002506Y-78372965D01*
X165862000Y-78232000D01*
X165246805Y-77579051D01*
X164841781Y-77089246D01*
X164714955Y-76847012D01*
X164736353Y-76835000D01*
X165024591Y-77004459D01*
G36*
X173524072Y-76896741D02*
G01*
X174030354Y-77133722D01*
X174636272Y-77623575D01*
X175260000Y-78232000D01*
X176639646Y-79629000D01*
X175750646Y-79629000D01*
X175217927Y-79567258D01*
X174711645Y-79330277D01*
X174105727Y-78840424D01*
X173482000Y-78232000D01*
X172102353Y-76835000D01*
X172991353Y-76835000D01*
X173524072Y-76896741D01*
X173524072Y-76896741D01*
G37*
X173524072Y-76896741D02*
X174030354Y-77133722D01*
X174636272Y-77623575D01*
X175260000Y-78232000D01*
X176639646Y-79629000D01*
X175750646Y-79629000D01*
X175217927Y-79567258D01*
X174711645Y-79330277D01*
X174105727Y-78840424D01*
X173482000Y-78232000D01*
X172102353Y-76835000D01*
X172991353Y-76835000D01*
X173524072Y-76896741D01*
G36*
X176685124Y-76932614D02*
G01*
X177259612Y-77271941D01*
X177996713Y-77922710D01*
X178308000Y-78232000D01*
X179687646Y-79629000D01*
X178925646Y-79629000D01*
X178406875Y-79531385D01*
X177832387Y-79192058D01*
X177095286Y-78541289D01*
X176784000Y-78232000D01*
X175404353Y-76835000D01*
X176166353Y-76835000D01*
X176685124Y-76932614D01*
X176685124Y-76932614D01*
G37*
X176685124Y-76932614D02*
X177259612Y-77271941D01*
X177996713Y-77922710D01*
X178308000Y-78232000D01*
X179687646Y-79629000D01*
X178925646Y-79629000D01*
X178406875Y-79531385D01*
X177832387Y-79192058D01*
X177095286Y-78541289D01*
X176784000Y-78232000D01*
X175404353Y-76835000D01*
X176166353Y-76835000D01*
X176685124Y-76932614D01*
G36*
X179248591Y-77004459D02*
G01*
X179781269Y-77453038D01*
X180453493Y-78091034D01*
X180594000Y-78232000D01*
X181209194Y-78884948D01*
X181614218Y-79374753D01*
X181741044Y-79616987D01*
X181719646Y-79629000D01*
X181431408Y-79459540D01*
X180898730Y-79010961D01*
X180226506Y-78372965D01*
X180086000Y-78232000D01*
X179470805Y-77579051D01*
X179065781Y-77089246D01*
X178938955Y-76847012D01*
X178960353Y-76835000D01*
X179248591Y-77004459D01*
X179248591Y-77004459D01*
G37*
X179248591Y-77004459D02*
X179781269Y-77453038D01*
X180453493Y-78091034D01*
X180594000Y-78232000D01*
X181209194Y-78884948D01*
X181614218Y-79374753D01*
X181741044Y-79616987D01*
X181719646Y-79629000D01*
X181431408Y-79459540D01*
X180898730Y-79010961D01*
X180226506Y-78372965D01*
X180086000Y-78232000D01*
X179470805Y-77579051D01*
X179065781Y-77089246D01*
X178938955Y-76847012D01*
X178960353Y-76835000D01*
X179248591Y-77004459D01*
G36*
X124860191Y-76351713D02*
G01*
X125589099Y-77112177D01*
X126007082Y-77656755D01*
X126185229Y-78104424D01*
X126194627Y-78574157D01*
X126193691Y-78583522D01*
X126111000Y-79399139D01*
X124777500Y-78045582D01*
X124052526Y-77264239D01*
X123641635Y-76676733D01*
X123467302Y-76153316D01*
X123444000Y-75813773D01*
X123444000Y-74935521D01*
X124860191Y-76351713D01*
X124860191Y-76351713D01*
G37*
X124860191Y-76351713D02*
X125589099Y-77112177D01*
X126007082Y-77656755D01*
X126185229Y-78104424D01*
X126194627Y-78574157D01*
X126193691Y-78583522D01*
X126111000Y-79399139D01*
X124777500Y-78045582D01*
X124052526Y-77264239D01*
X123641635Y-76676733D01*
X123467302Y-76153316D01*
X123444000Y-75813773D01*
X123444000Y-74935521D01*
X124860191Y-76351713D01*
G36*
X151084002Y-74209556D02*
G01*
X151594179Y-74654539D01*
X152248294Y-75284917D01*
X152345176Y-75382487D01*
X153082555Y-76181919D01*
X153495323Y-76788924D01*
X153658134Y-77325162D01*
X153670000Y-77541487D01*
X153615886Y-78100244D01*
X153484266Y-78357144D01*
X153470823Y-78359000D01*
X153207997Y-78190443D01*
X152697820Y-77745460D01*
X152043705Y-77115082D01*
X151946823Y-77017512D01*
X151209444Y-76218080D01*
X150796676Y-75611075D01*
X150633865Y-75074837D01*
X150622000Y-74858512D01*
X150676113Y-74299755D01*
X150807733Y-74042855D01*
X150821176Y-74041000D01*
X151084002Y-74209556D01*
X151084002Y-74209556D01*
G37*
X151084002Y-74209556D02*
X151594179Y-74654539D01*
X152248294Y-75284917D01*
X152345176Y-75382487D01*
X153082555Y-76181919D01*
X153495323Y-76788924D01*
X153658134Y-77325162D01*
X153670000Y-77541487D01*
X153615886Y-78100244D01*
X153484266Y-78357144D01*
X153470823Y-78359000D01*
X153207997Y-78190443D01*
X152697820Y-77745460D01*
X152043705Y-77115082D01*
X151946823Y-77017512D01*
X151209444Y-76218080D01*
X150796676Y-75611075D01*
X150633865Y-75074837D01*
X150622000Y-74858512D01*
X150676113Y-74299755D01*
X150807733Y-74042855D01*
X150821176Y-74041000D01*
X151084002Y-74209556D01*
G36*
X207980002Y-74209556D02*
G01*
X208490179Y-74654539D01*
X209144294Y-75284917D01*
X209241176Y-75382487D01*
X209978555Y-76181919D01*
X210391323Y-76788924D01*
X210554134Y-77325162D01*
X210566000Y-77541487D01*
X210511886Y-78100244D01*
X210380266Y-78357144D01*
X210366823Y-78359000D01*
X210103997Y-78190443D01*
X209593820Y-77745460D01*
X208939705Y-77115082D01*
X208842823Y-77017512D01*
X208105444Y-76218080D01*
X207692676Y-75611075D01*
X207529865Y-75074837D01*
X207518000Y-74858512D01*
X207572113Y-74299755D01*
X207703733Y-74042855D01*
X207717176Y-74041000D01*
X207980002Y-74209556D01*
X207980002Y-74209556D01*
G37*
X207980002Y-74209556D02*
X208490179Y-74654539D01*
X209144294Y-75284917D01*
X209241176Y-75382487D01*
X209978555Y-76181919D01*
X210391323Y-76788924D01*
X210554134Y-77325162D01*
X210566000Y-77541487D01*
X210511886Y-78100244D01*
X210380266Y-78357144D01*
X210366823Y-78359000D01*
X210103997Y-78190443D01*
X209593820Y-77745460D01*
X208939705Y-77115082D01*
X208842823Y-77017512D01*
X208105444Y-76218080D01*
X207692676Y-75611075D01*
X207529865Y-75074837D01*
X207518000Y-74858512D01*
X207572113Y-74299755D01*
X207703733Y-74042855D01*
X207717176Y-74041000D01*
X207980002Y-74209556D01*
G36*
X124861731Y-73305253D02*
G01*
X125610344Y-74094855D01*
X126033187Y-74666259D01*
X126196620Y-75124221D01*
X126195231Y-75410247D01*
X126138233Y-75745412D01*
X126020650Y-75856383D01*
X125762742Y-75705673D01*
X125284770Y-75255795D01*
X124777500Y-74743767D01*
X124013170Y-73905034D01*
X123591400Y-73263620D01*
X123446054Y-72715127D01*
X123444000Y-72638773D01*
X123444000Y-71887521D01*
X124861731Y-73305253D01*
X124861731Y-73305253D01*
G37*
X124861731Y-73305253D02*
X125610344Y-74094855D01*
X126033187Y-74666259D01*
X126196620Y-75124221D01*
X126195231Y-75410247D01*
X126138233Y-75745412D01*
X126020650Y-75856383D01*
X125762742Y-75705673D01*
X125284770Y-75255795D01*
X124777500Y-74743767D01*
X124013170Y-73905034D01*
X123591400Y-73263620D01*
X123446054Y-72715127D01*
X123444000Y-72638773D01*
X123444000Y-71887521D01*
X124861731Y-73305253D01*
G36*
X151116412Y-71406814D02*
G01*
X151678652Y-71931988D01*
X152168682Y-72417762D01*
X153002183Y-73303523D01*
X153475928Y-73947293D01*
X153634970Y-74413986D01*
X153629182Y-74522167D01*
X153550861Y-74759842D01*
X153372096Y-74771634D01*
X153021241Y-74514853D01*
X152426650Y-73946809D01*
X152082500Y-73600579D01*
X151180704Y-72598023D01*
X150705676Y-71847202D01*
X150622000Y-71496174D01*
X150654722Y-71228612D01*
X150797314Y-71185591D01*
X151116412Y-71406814D01*
X151116412Y-71406814D01*
G37*
X151116412Y-71406814D02*
X151678652Y-71931988D01*
X152168682Y-72417762D01*
X153002183Y-73303523D01*
X153475928Y-73947293D01*
X153634970Y-74413986D01*
X153629182Y-74522167D01*
X153550861Y-74759842D01*
X153372096Y-74771634D01*
X153021241Y-74514853D01*
X152426650Y-73946809D01*
X152082500Y-73600579D01*
X151180704Y-72598023D01*
X150705676Y-71847202D01*
X150622000Y-71496174D01*
X150654722Y-71228612D01*
X150797314Y-71185591D01*
X151116412Y-71406814D01*
G36*
X208012412Y-71406814D02*
G01*
X208574652Y-71931988D01*
X209064682Y-72417762D01*
X209898183Y-73303523D01*
X210371928Y-73947293D01*
X210530970Y-74413986D01*
X210525182Y-74522167D01*
X210446861Y-74759842D01*
X210268096Y-74771634D01*
X209917241Y-74514853D01*
X209322650Y-73946809D01*
X208978500Y-73600579D01*
X208076704Y-72598023D01*
X207601676Y-71847202D01*
X207518000Y-71496174D01*
X207550722Y-71228612D01*
X207693314Y-71185591D01*
X208012412Y-71406814D01*
X208012412Y-71406814D01*
G37*
X208012412Y-71406814D02*
X208574652Y-71931988D01*
X209064682Y-72417762D01*
X209898183Y-73303523D01*
X210371928Y-73947293D01*
X210530970Y-74413986D01*
X210525182Y-74522167D01*
X210446861Y-74759842D01*
X210268096Y-74771634D01*
X209917241Y-74514853D01*
X209322650Y-73946809D01*
X208978500Y-73600579D01*
X208076704Y-72598023D01*
X207601676Y-71847202D01*
X207518000Y-71496174D01*
X207550722Y-71228612D01*
X207693314Y-71185591D01*
X208012412Y-71406814D01*
G36*
X123879609Y-69885424D02*
G01*
X124371103Y-70300348D01*
X124956666Y-70859249D01*
X125529258Y-71453603D01*
X125981837Y-71974886D01*
X126207366Y-72314576D01*
X126207803Y-72377862D01*
X125983926Y-72271535D01*
X125504546Y-71875817D01*
X124863693Y-71269950D01*
X124707794Y-71113715D01*
X124094474Y-70462436D01*
X123691828Y-69974458D01*
X123567900Y-69734378D01*
X123589225Y-69723000D01*
X123879609Y-69885424D01*
X123879609Y-69885424D01*
G37*
X123879609Y-69885424D02*
X124371103Y-70300348D01*
X124956666Y-70859249D01*
X125529258Y-71453603D01*
X125981837Y-71974886D01*
X126207366Y-72314576D01*
X126207803Y-72377862D01*
X125983926Y-72271535D01*
X125504546Y-71875817D01*
X124863693Y-71269950D01*
X124707794Y-71113715D01*
X124094474Y-70462436D01*
X123691828Y-69974458D01*
X123567900Y-69734378D01*
X123589225Y-69723000D01*
X123879609Y-69885424D01*
G36*
X151052013Y-68870093D02*
G01*
X151549093Y-69290314D01*
X152154457Y-69864073D01*
X152765697Y-70487783D01*
X153280403Y-71057854D01*
X153596167Y-71470698D01*
X153640593Y-71615073D01*
X153418206Y-71505988D01*
X152934721Y-71105605D01*
X152279567Y-70490312D01*
X152012426Y-70224357D01*
X151363549Y-69540868D01*
X150918727Y-69017215D01*
X150744583Y-68734477D01*
X150765627Y-68707000D01*
X151052013Y-68870093D01*
X151052013Y-68870093D01*
G37*
X151052013Y-68870093D02*
X151549093Y-69290314D01*
X152154457Y-69864073D01*
X152765697Y-70487783D01*
X153280403Y-71057854D01*
X153596167Y-71470698D01*
X153640593Y-71615073D01*
X153418206Y-71505988D01*
X152934721Y-71105605D01*
X152279567Y-70490312D01*
X152012426Y-70224357D01*
X151363549Y-69540868D01*
X150918727Y-69017215D01*
X150744583Y-68734477D01*
X150765627Y-68707000D01*
X151052013Y-68870093D01*
G36*
X207948013Y-68870093D02*
G01*
X208445093Y-69290314D01*
X209050457Y-69864073D01*
X209661697Y-70487783D01*
X210176403Y-71057854D01*
X210492167Y-71470698D01*
X210536593Y-71615073D01*
X210314206Y-71505988D01*
X209830721Y-71105605D01*
X209175567Y-70490312D01*
X208908426Y-70224357D01*
X208259549Y-69540868D01*
X207814727Y-69017215D01*
X207640583Y-68734477D01*
X207661627Y-68707000D01*
X207948013Y-68870093D01*
X207948013Y-68870093D01*
G37*
X207948013Y-68870093D02*
X208445093Y-69290314D01*
X209050457Y-69864073D01*
X209661697Y-70487783D01*
X210176403Y-71057854D01*
X210492167Y-71470698D01*
X210536593Y-71615073D01*
X210314206Y-71505988D01*
X209830721Y-71105605D01*
X209175567Y-70490312D01*
X208908426Y-70224357D01*
X208259549Y-69540868D01*
X207814727Y-69017215D01*
X207640583Y-68734477D01*
X207661627Y-68707000D01*
X207948013Y-68870093D01*
D11*
X136255000Y-96266000D02*
G75*
G03X136255000Y-96266000I-1000000J0D01*
G01*
D12*
X158850000Y-96171000D02*
X158520000Y-96171000D01*
X158850000Y-102711000D02*
X158850000Y-96171000D01*
X158520000Y-102711000D02*
X158850000Y-102711000D01*
X156110000Y-96171000D02*
X156440000Y-96171000D01*
X156110000Y-102711000D02*
X156110000Y-96171000D01*
X156440000Y-102711000D02*
X156110000Y-102711000D01*
X152500000Y-96171000D02*
X152170000Y-96171000D01*
X152500000Y-102711000D02*
X152500000Y-96171000D01*
X152170000Y-102711000D02*
X152500000Y-102711000D01*
X149760000Y-96171000D02*
X150090000Y-96171000D01*
X149760000Y-102711000D02*
X149760000Y-96171000D01*
X150090000Y-102711000D02*
X149760000Y-102711000D01*
X162025000Y-96171000D02*
X161695000Y-96171000D01*
X162025000Y-102711000D02*
X162025000Y-96171000D01*
X161695000Y-102711000D02*
X162025000Y-102711000D01*
X159285000Y-96171000D02*
X159615000Y-96171000D01*
X159285000Y-102711000D02*
X159285000Y-96171000D01*
X159615000Y-102711000D02*
X159285000Y-102711000D01*
X155675000Y-96171000D02*
X155345000Y-96171000D01*
X155675000Y-102711000D02*
X155675000Y-96171000D01*
X155345000Y-102711000D02*
X155675000Y-102711000D01*
X152935000Y-96171000D02*
X153265000Y-96171000D01*
X152935000Y-102711000D02*
X152935000Y-96171000D01*
X153265000Y-102711000D02*
X152935000Y-102711000D01*
X144633000Y-88371000D02*
X144633000Y-91461000D01*
X149693000Y-89916000D02*
G75*
G03X149693000Y-89916000I-2500000J0D01*
G01*
X150183000Y-89915538D02*
G75*
G02X144633000Y-91460830I-2990000J-462D01*
G01*
X150183000Y-89916462D02*
G75*
G03X144633000Y-88371170I-2990000J462D01*
G01*
X205847000Y-114406000D02*
X205847000Y-117496000D01*
X210907000Y-115951000D02*
G75*
G03X210907000Y-115951000I-2500000J0D01*
G01*
X211397000Y-115950538D02*
G75*
G02X205847000Y-117495830I-2990000J-462D01*
G01*
X211397000Y-115951462D02*
G75*
G03X205847000Y-114406170I-2990000J462D01*
G01*
X219944000Y-114406000D02*
X219944000Y-117496000D01*
X225004000Y-115951000D02*
G75*
G03X225004000Y-115951000I-2500000J0D01*
G01*
X225494000Y-115950538D02*
G75*
G02X219944000Y-117495830I-2990000J-462D01*
G01*
X225494000Y-115951462D02*
G75*
G03X219944000Y-114406170I-2990000J462D01*
G01*
X130155000Y-88371000D02*
X130155000Y-91461000D01*
X135215000Y-89916000D02*
G75*
G03X135215000Y-89916000I-2500000J0D01*
G01*
X135705000Y-89915538D02*
G75*
G02X130155000Y-91460830I-2990000J-462D01*
G01*
X135705000Y-89916462D02*
G75*
G03X130155000Y-88371170I-2990000J462D01*
G01*
M02*
